<?xml version="1.0" standalone="no"?>
<!DOCTYPE svg PUBLIC "-//W3C//DTD SVG 20010904//EN"
 "http://www.w3.org/TR/2001/REC-SVG-20010904/DTD/svg10.dtd">
<svg version="1.0" xmlns="http://www.w3.org/2000/svg"
 width="300.000000pt" height="300.000000pt" viewBox="0 0 300.000000 300.000000"
 preserveAspectRatio="xMidYMid meet">
<metadata>
Created by potrace 1.11, written by Peter Selinger 2001-2013
</metadata>
<g transform="translate(0.000000,300.000000) scale(0.100000,-0.100000)"
fill="#000000" stroke="none">
<path d="M1818 1846 c-117 -48 -270 -156 -365 -260 -30 -32 -53 -50 -53 -42 0
17 -15 21 -24 7 -4 -5 -14 -8 -24 -7 -9 2 -20 -1 -23 -6 -3 -5 -14 -2 -23 8
-12 11 -21 13 -27 7 -6 -6 -27 -8 -46 -6 -24 3 -33 1 -29 -6 4 -6 6 -11 3 -11
-2 0 -23 30 -48 67 -24 37 -79 103 -121 146 l-77 78 -58 -3 c-58 -3 -58 -3
-80 -48 -37 -76 -66 -215 -71 -345 -2 -66 -7 -123 -11 -127 -3 -4 -23 -3 -43
1 -20 5 -40 6 -43 3 -10 -10 -55 -10 -55 1 0 5 -7 3 -17 -4 -13 -11 -17 -11
-20 -1 -3 6 -10 9 -16 5 -18 -11 -47 -14 -47 -5 0 10 -30 9 -47 -1 -6 -4 -14
-3 -18 3 -4 6 -11 7 -17 4 -6 -4 -32 -8 -57 -8 -36 -1 -46 -5 -49 -19 -3 -17
3 -18 95 -11 110 7 186 -4 270 -42 29 -12 53 -25 53 -27 0 -7 -76 -1 -89 8 -8
4 -16 2 -21 -5 -5 -9 -9 -9 -14 -1 -4 7 -14 8 -24 3 -20 -10 -33 -10 -49 1 -8
5 -13 4 -13 -2 0 -6 -5 -11 -11 -11 -5 0 -7 5 -4 10 3 6 1 10 -4 10 -6 0 -11
-4 -11 -10 0 -5 -5 -10 -11 -10 -5 0 -8 3 -6 8 3 4 -13 7 -34 7 -21 1 -39 -2
-39 -5 0 -3 -16 -5 -35 -4 -41 2 -42 -3 -16 -77 22 -65 59 -137 100 -199 17
-24 28 -46 26 -49 -3 -2 -83 -4 -179 -4 l-175 0 21 -41 c69 -137 179 -246 313
-311 135 -65 218 -81 405 -76 229 5 312 4 553 -4 251 -9 370 1 543 46 416 106
708 368 878 788 14 36 26 66 26 68 0 2 -214 3 -476 3 l-475 0 8 48 c16 91 10
321 -11 400 -10 40 -21 74 -25 76 -4 3 -32 -6 -63 -18z"/>
</g>
</svg>
